<svg viewBox="0 0 24 24" xmlns="http://www.w3.org/2000/svg">
  <path fill="#609926" d="M4.209 4.603c-.247 0-.525.02-.84.088-.333.07-1.28.283-2.054 1.027C-.403 7.25.035 9.685.089 10.052c.065.446.263 1.687 1.21 2.768 1.749 2.141 5.513 2.092 5.513 2.092s.462 1.103 1.168 2.119c.955 1.263 1.936 2.248 2.89 2.248 2.22 0 4.604-2.267 6.197-4.957.9-1.474 1.564-3.161 1.564-4.624 0-1.464-.664-3.15-1.564-4.624-1.593-2.69-3.977-4.957-6.197-4.957-.954 0-1.935.985-2.89 2.248-.706 1.016-1.168 2.119-1.168 2.119s-3.764-.049-5.513 2.092c-.947 1.081-1.145 2.322-1.21 2.768-.054.367-.492 2.802 1.329 4.334.774.744 1.721.957 2.054 1.027.315.068.593.088.84.088l-.025-.003c.228-.024.46-.088.685-.213.483-.208.803-.668.93-.946.17-.253.249-.475.333-.665.089-.204.138-.395.187-.582.073-.278.136-.576.166-.924.03-.329.022-.708.022-1.157 0-.21-.024-.447-.03-.671a14.66 14.66 0 0 0-.166-1.478c-.202-1.25-.512-2.35-.747-3.184-.234-.833-.487-1.423-.647-1.69-.213-.356-.458-.583-.747-.696-.289-.112-.502-.14-.693-.14-.289 0-.547.072-.78.197-.247.132-.443.314-.592.517-.105.14-.18.318-.264.515-.065.152-.134.33-.19.531-.09.31-.144.688-.144 1.131 0 .294.013.622.063.978.034.234.07.447.101.649.1.67.155 1.227.155 1.227s.114.572.114 1.144c0 .573-.113 1.145-.113 1.145s-.056.555-.155 1.225a14.81 14.81 0 0 1-.101.649c-.05.356-.063.684-.063.978 0 .443.055.821.144 1.131.056.2.125.379.19.531.084.197.159.375.264.515.149.203.345.385.592.517.233.125.491.197.78.197.191 0 .404-.028.693-.14.289-.113.534-.34.747-.696.16-.267.413-.857.647-1.69.235-.834.545-1.934.747-3.184.066-.417.122-.919.166-1.478.006-.224.03-.461.03-.671 0-.449.008-.828-.022-1.157-.03-.348-.093-.646-.166-.924-.049-.187-.098-.378-.187-.582-.084-.19-.163-.412-.333-.665-.127-.278-.447-.738-.93-.946a1.752 1.752 0 0 0-.685-.213l.025-.003z"/>
</svg>

