<svg viewBox="0 0 24 24" xmlns="http://www.w3.org/2000/svg">
  <path fill="#E24329" d="m23.6 9.593-.033-.086L20.3.98a.851.851 0 0 0-.336-.405.875.875 0 0 0-1.002.07.859.859 0 0 0-.285.406l-2.212 6.777H7.535L5.323 1.051a.859.859 0 0 0-.285-.406.874.874 0 0 0-1.002-.07.851.851 0 0 0-.336.405L.432 9.507l-.033.086a6.066 6.066 0 0 0 2.012 7.01l.011.008.027.02 4.986 3.735 2.467 1.867 1.502 1.136a1.013 1.013 0 0 0 1.222 0l1.502-1.136 2.467-1.867 5.013-3.755.012-.009a6.068 6.068 0 0 0 2.01-7.009z"/>
  <path fill="#FC6D26" d="m23.6 9.593-.033-.086a11.637 11.637 0 0 0-4.639 2.078l-6.927 5.235 4.417 3.34 5.013-3.755.012-.009a6.068 6.068 0 0 0 2.01-7.009l.147.206z"/>
  <path fill="#FCA326" d="m7.583 20.16 2.467 1.867 1.502 1.136a1.013 1.013 0 0 0 1.222 0l1.502-1.136 2.467-1.867-4.417-3.34-4.743 3.34z"/>
  <path fill="#FC6D26" d="M5.072 11.585A11.637 11.637 0 0 0 .432 9.507l-.033.086a6.066 6.066 0 0 0 2.012 7.01l.011.008.027.02 4.986 3.735 4.566-3.452-6.929-5.329z"/>
</svg>

